<?xml version="1.0" encoding="UTF-8"?>
<!--Generator: Apple Native CoreSVG 232.5-->
<!DOCTYPE svg
PUBLIC "-//W3C//DTD SVG 1.1//EN"
       "http://www.w3.org/Graphics/SVG/1.1/DTD/svg11.dtd">
<svg version="1.1" xmlns="http://www.w3.org/2000/svg" xmlns:xlink="http://www.w3.org/1999/xlink" width="20.8862" height="26.1841">
 <g>
  <rect height="23.1841" opacity="0" width="17.8862" x="0" y="0"/>
  <path d="M3.78418 26.1719L16.748 26.1719C19.2749 26.1719 20.5322 24.8901 20.5322 22.3511L20.5322 11.2671C20.5322 9.69238 20.3491 9.00879 19.3726 8.00781L12.6465 1.15967C11.7188 0.20752 10.9497 0 9.58252 0L3.78418 0C1.26953 0 0 1.29395 0 3.83301L0 22.3511C0 24.9023 1.25732 26.1719 3.78418 26.1719ZM3.86963 24.2065C2.6123 24.2065 1.96533 23.5352 1.96533 22.3145L1.96533 3.86963C1.96533 2.66113 2.6123 1.96533 3.88184 1.96533L9.31396 1.96533L9.31396 9.05762C9.31396 10.5957 10.083 11.3525 11.6089 11.3525L18.5669 11.3525L18.5669 22.3145C18.5669 23.5352 17.9199 24.2065 16.6504 24.2065ZM11.8286 9.50928C11.3403 9.50928 11.1572 9.31396 11.1572 8.82568L11.1572 2.34375L18.1885 9.50928Z" fill="#000000" fill-opacity="0.5"/>
  <path d="M14.7583 14.7217L5.49316 14.7217C5.05371 14.7217 4.72412 15.0513 4.72412 15.4663C4.72412 15.8936 5.05371 16.2231 5.49316 16.2231L14.7583 16.2231C15.1855 16.2231 15.5029 15.8936 15.5029 15.4663C15.5029 15.0513 15.1855 14.7217 14.7583 14.7217ZM14.7583 18.9819L5.49316 18.9819C5.05371 18.9819 4.72412 19.3237 4.72412 19.751C4.72412 20.166 5.05371 20.4834 5.49316 20.4834L14.7583 20.4834C15.1855 20.4834 15.5029 20.166 15.5029 19.751C15.5029 19.3237 15.1855 18.9819 14.7583 18.9819Z" fill="#000000" fill-opacity="0.5"/>
 </g>
</svg>
