<?xml version="1.0" encoding="UTF-8"?>
<!--Generator: Apple Native CoreSVG 232.5-->
<!DOCTYPE svg
PUBLIC "-//W3C//DTD SVG 1.1//EN"
       "http://www.w3.org/Graphics/SVG/1.1/DTD/svg11.dtd">
<svg version="1.1" xmlns="http://www.w3.org/2000/svg" xmlns:xlink="http://www.w3.org/1999/xlink" width="3.33594" height="3.66602">
 <g>
  <rect height="3.66602" opacity="0" width="3.33594" x="0" y="0"/>
  <path d="M2.94336 2.84766C3.01562 2.78125 3.01367 2.67773 2.94336 2.61133L2.15234 1.84375C2.12305 1.8125 2.07617 1.79492 2.03906 1.79492C1.94531 1.79492 1.88281 1.85938 1.88281 1.95117C1.88281 1.99609 1.89844 2.0293 1.92578 2.05859L2.24023 2.35742L2.51758 2.58984L2.15625 2.57227L0.158203 2.57227C0.0664062 2.57227 0 2.63867 0 2.73047C0 2.82227 0.0664062 2.88867 0.158203 2.88867L2.15625 2.88867L2.51758 2.87109L2.24023 3.10156L1.92578 3.40234C1.89844 3.43164 1.88281 3.46484 1.88281 3.50977C1.88281 3.60156 1.94531 3.66602 2.03906 3.66602C2.07617 3.66602 2.12305 3.64648 2.15234 3.61719Z" fill="#000000" fill-opacity="0.85"/>
  <path d="M0.0527344 0.820312C-0.0175781 0.886719-0.015625 0.990234 0.0527344 1.05469L0.84375 1.82422C0.873047 1.85352 0.919922 1.87305 0.957031 1.87305C1.05078 1.87305 1.11328 1.80859 1.11328 1.7168C1.11328 1.67188 1.09766 1.63867 1.07031 1.60938L0.755859 1.30859L0.478516 1.07812L0.839844 1.0957L2.83789 1.0957C2.92969 1.0957 2.99609 1.0293 2.99609 0.9375C2.99609 0.845703 2.92969 0.779297 2.83789 0.779297L0.839844 0.779297L0.478516 0.796875L0.755859 0.566406L1.07031 0.265625C1.09766 0.236328 1.11328 0.203125 1.11328 0.158203C1.11328 0.0664062 1.05078 0.00195312 0.957031 0.00195312C0.919922 0.00195312 0.873047 0.0214844 0.84375 0.0507812Z" fill="#000000" fill-opacity="0.85"/>
 </g>
</svg>
