<?xml version="1.0" encoding="UTF-8"?>
<!--Generator: Apple Native CoreSVG 232.5-->
<!DOCTYPE svg
PUBLIC "-//W3C//DTD SVG 1.1//EN"
       "http://www.w3.org/Graphics/SVG/1.1/DTD/svg11.dtd">
<svg version="1.1" xmlns="http://www.w3.org/2000/svg" xmlns:xlink="http://www.w3.org/1999/xlink" width="0.833984" height="0.916504">
 <g>
  <rect height="0.916504" opacity="0" width="0.833984" x="0" y="0"/>
  <path d="M0.73584 0.711914C0.753906 0.695312 0.753418 0.669434 0.73584 0.652832L0.538086 0.460938C0.530762 0.453125 0.519043 0.44873 0.509766 0.44873C0.486328 0.44873 0.470703 0.464844 0.470703 0.487793C0.470703 0.499023 0.474609 0.507324 0.481445 0.514648L0.560059 0.589355L0.629395 0.647461L0.539062 0.643066L0.0395508 0.643066C0.0166016 0.643066 0 0.659668 0 0.682617C0 0.705566 0.0166016 0.722168 0.0395508 0.722168L0.539062 0.722168L0.629395 0.717773L0.560059 0.775391L0.481445 0.850586C0.474609 0.85791 0.470703 0.866211 0.470703 0.877441C0.470703 0.900391 0.486328 0.916504 0.509766 0.916504C0.519043 0.916504 0.530762 0.911621 0.538086 0.904297Z" fill="#fff" fill-opacity="0.85"/>
  <path d="M0.0131836 0.205078C-0.00439453 0.22168-0.00390625 0.247559 0.0131836 0.263672L0.210938 0.456055C0.218262 0.463379 0.22998 0.468262 0.239258 0.468262C0.262695 0.468262 0.27832 0.452148 0.27832 0.429199C0.27832 0.417969 0.274414 0.409668 0.267578 0.402344L0.188965 0.327148L0.119629 0.269531L0.209961 0.273926L0.709473 0.273926C0.732422 0.273926 0.749023 0.257324 0.749023 0.234375C0.749023 0.211426 0.732422 0.194824 0.709473 0.194824L0.209961 0.194824L0.119629 0.199219L0.188965 0.141602L0.267578 0.0664062C0.274414 0.059082 0.27832 0.0507812 0.27832 0.0395508C0.27832 0.0166016 0.262695 0.000488281 0.239258 0.000488281C0.22998 0.000488281 0.218262 0.00537109 0.210938 0.0126953Z" fill="#fff" fill-opacity="0.85"/>
 </g>
</svg>
